<svg height="48" width="48" xmlns="http://www.w3.org/2000/svg" xmlns:xlink="http://www.w3.org/1999/xlink"><linearGradient id="a"><stop offset="0"/><stop offset="1" stop-opacity="0"/></linearGradient><linearGradient id="b" gradientUnits="userSpaceOnUse" x1="24.112" x2="17.358" y1="36.417" y2="8.984"><stop offset="0" stop-color="#7d519e"/><stop offset="1" stop-color="#a987c2"/></linearGradient><linearGradient id="c" gradientUnits="userSpaceOnUse" x1="24.935" x2="39.71" xlink:href="#a" y1="10.262" y2="25.036"/><linearGradient id="d" gradientUnits="userSpaceOnUse" x1="15.063" x2="35.919" xlink:href="#a" y1="12.237" y2="33.093"/><linearGradient id="e" gradientUnits="userSpaceOnUse" x1="15.588" x2="28.731" y1="8.79" y2="31.554"><stop offset="0" stop-color="#fff"/><stop offset="1" stop-color="#cbb0ea"/></linearGradient><path d="m15 6c-5.54 0-10 4.46-10 10v10c0 5.202335 3.9330841 9.452424 9 9.951172v8.048828l8-8h11c5.54 0 10-4.46 10-10v-10c0-5.54-4.46-10-10-10z" fill="url(#b)" fill-rule="evenodd"/><path d="m16.257812 12.113281-1.664062 7.105469 3.908203 6.230469 10.550781 10.550781h3.947266c2.328101 0 4.458484-.79473 6.154297-2.119141l-21.443359-21.443359z" fill="url(#d)" opacity=".2"/><path d="m27.580078 10.564453-2.414062.421875.05664.449219 3.363282 3.363281-3.462891-.02539.066406.615234 16.146485 16.146484c1.051098-1.583455 1.664062-3.484126 1.664062-5.535156v-2.882812l-10.732422-10.734376z" fill="url(#c)" opacity=".2"/><path d="m25.888626 10.00016c-.48314 0-.88408.38589-.88867.85352-.0028.46975.39819.86478.88477.86719 2.0999.01577 3.8265.67944 5.2188 1.9883 1.3759 1.2967 2.0931 3.0932 2.1113 5.4375v.002c.005.46636.40622.85152.89062.85152.000051 0 .0092-.0018.0098-.002.4855-.0045.88869-.3959.88477-.86524v-.002c-.0113-1.3664-.23344-2.6227-.668-3.7284-.4398-1.1171-1.1083-2.1056-1.9805-2.9277-1.7225-1.6199-3.9228-2.4567-6.4551-2.4746h-.0078zm-9.0195 2.0215c-.3388-.05759-.7058.0054-1.0723.18164h-.0293l-.04102.02344c-.67914.38604-1.3158.90359-1.9121 1.5527l-.04687.05078v.04687c-.41259.51439-.6853 1.0321-.74805 1.5508-.02002.0879-.01953.16714-.01953.25196 0 .23596.03468.47576.10742.71094l.01953.06641.04102.02344c.23553.80809.77 2.0657 1.9395 4.1953.77892 1.4115 1.5748 2.5906 2.3652 3.584.41639.5221.88808 1.0657 1.4355 1.6133.0065.0065.02959.03008.05469.05273.0087.0087.02087.02673.05078.05664l.05469.05469h.0039c.01927.01927.03227.03326.03516.03711l.0098.01172.0098.0098c.54744.54148 1.0874 1.016 1.6152 1.4297.99189.79051 2.1707 1.5927 3.582 2.373 2.132 1.1762 3.4013 1.7078 4.2051 1.9395l.0293.03516.04883.01758c.2277.07591.46464.11096.69922.10742.09514.0052.17939-.0015.25976-.01953.55048-.06436 1.0955-.325 1.6348-.77734l.0059-.0078.0059-.0039c.0083-.0083.0034-.0043.0078-.0098.0048-.0043.0069-.0093.01172-.01367.63825-.58251 1.1534-1.2161 1.541-1.8945l.02539-.04297v-.04102c.35599-.74129.21499-1.4981-.36328-1.9805-.01417-.01215-.29201-.2444-.63672-.52539-.35253-.28727-.77061-.62493-1.0529-.83206-.53408-.39509-1.3596-.90615-1.8301-1.168h-.002c-.90375-.50613-1.8481-.21199-2.2637.32617l-.72852.91211c-.29381.3702-.8809.33489-.89648.33398-4.9414-1.2713-6.2699-6.24-6.2793-6.2754-.000881-.01555-.0364-.60368.33398-.90234l.9082-.72656c.53945-.41319.84274-1.3574.33398-2.2637-.2654-.46852-.77867-1.3002-1.168-1.8301h-.002c-.2087-.28127-.54533-.70183-.83203-1.0547-.14335-.17643-.27386-.33792-.36914-.45312-.04764-.05761-.08595-.10414-.11328-.13672-.01367-.01629-.02518-.02775-.0332-.03711-.004-.0047-.0063-.0078-.0098-.01172-.25169-.29887-.57248-.48096-.92578-.54102zm9.0723 1.9805c-.47653-.0336-.90471.32346-.93945.7832-.03478.46025.3365.87074.8125.9043 1.1771.08319 1.9714.42925 2.5684 1.0605v.002c.60928.643.88651 1.3773.86328 2.3809v.0039c-.0104.46178.37701.85312.85547.86324h.02147c.47147 0 .86451-.37219.875-.82812.03225-1.3793-.41702-2.6101-1.3223-3.5645-.90942-.95914-2.1978-1.4963-3.7344-1.6055z" fill="url(#e)"/><path d="m5 25v1c0 5.202335 3.9330841 9.452424 9 9.951172v-1c-5.0669159-.498748-9-4.748837-9-9.951172zm38 0c0 5.54-4.46 10-10 10h-11l-8 8v1l8-8h11c5.54 0 10-4.46 10-10z" fill-rule="evenodd" opacity=".15"/></svg>