<svg height="64" viewBox="0 0 64 64" width="64" xmlns="http://www.w3.org/2000/svg"><g fill="none" fill-rule="evenodd"><path d="m26.6643005 55.9089744-7.2884905 6.60189v-6.9677725c-8.2043111-1.6785811-14.37572655-8.9346302-14.37572655-17.641231v-17.8947473c0-9.9450542 8.05727105-18.0071136 18.00594185-18.0071136h19.0950679c9.9444071 0 18.0059419 8.0561506 18.0059419 18.0071136v17.8947473c0 9.9450542-8.0572711 18.0071135-18.0059419 18.0071135zm.3213184-31.9224572c1.0048399-.873494 1.1021684-2.3806743.2332905-3.380204l-5.7603643-6.6265411-3.6164995 3.1437751c-1.9932734 1.732726-1.8488929 4.1487987-.86219 6.8629704 0 0 2.994943 5.3881784 7.7868519 10.2694771 4.7919088 4.8812988 13.730133 9.5098736 13.730133 9.5098736 2.2183037 1.4405833 5.1880014.8045976 6.6264547-1.4104262l2.6098606-4.0188329-7.3637398-4.7820685c-1.1107268-.7213145-2.5896938-.4151742-3.3148403.7014535l-.8489437 1.3072587c-3.578898-1.1934767-8.2493457-2.3670623-10.6906372-10.2983417z" fill="#80d25b"/><path d="m38.3476954 28.0041381c-.5162844-1.8308902-1.9567594-3.2743215-3.7859004-3.7947693m7.8847145 4.0093704c-1.0909626-3.8688608-4.1348356-6.9189807-8-8.0187408m12.6451104 8.4507614c-1.7831949-6.3237117-6.7584514-11.309179-13.0761213-13.1067535" stroke="#fff" stroke-linecap="round" stroke-linejoin="round" stroke-width="2"/></g></svg>